<?xml version="1.0" encoding="utf-8"?>
<!-- Generator: Adobe Illustrator 27.2.0, SVG Export Plug-In . SVG Version: 6.00 Build 0)  -->
<svg version="1.1" id="sort-ascending" xmlns="http://www.w3.org/2000/svg" xmlns:xlink="http://www.w3.org/1999/xlink" x="0px"
	 y="0px" viewBox="0 0 800 800" style="enable-background:new 0 0 800 800;" xml:space="preserve">
<path fill="var(--svgcolor)" d="M200,667.2c-8.9,0.1-17.4-3.4-23.7-9.7L43,524.2c-13.1-13.1-13.1-34.3,0-47.3
	c13.1-13.1,34.3-13.1,47.3,0l109.7,110l109.7-110c13.1-13.1,34.3-13.1,47.3,0c13.1,13.1,13.1,34.3,0,47.3L223.7,657.5
	C217.4,663.7,208.9,667.2,200,667.2z"/>
<path fill="var(--svgcolor)" d="M200,666.7c-18.4,0-33.3-14.9-33.3-33.3v-500c0-18.4,14.9-33.3,33.3-33.3s33.3,14.9,33.3,33.3v500
	C233.3,651.7,218.4,666.7,200,666.7z"/>
<path style="fill:#231F20;" d="M652.7,166.7H319.3c-18.4,0-33.3-14.9-33.3-33.3s14.9-33.3,33.3-33.3h333.3
	c18.4,0,33.3,14.9,33.3,33.3S671.1,166.7,652.7,166.7z"/>
<path style="fill:#524B4E;" d="M659.8,334H397.2c-14.5,0-26.2-14.9-26.2-33.3c0-18.4,11.8-33.3,26.2-33.3h262.5
	c14.5,0,26.2,14.9,26.2,33.3C686,319.1,674.2,334,659.8,334z"/>
<path style="fill:#716769;" d="M668,501.4H488c-9.9,0-18-14.9-18-33.3c0-18.4,8.1-33.3,18-33.3h180c9.9,0,18,14.9,18,33.3
	C686,486.5,677.9,501.4,668,501.4z"/>
</svg>
