<?xml version="1.0" encoding="utf-8"?>
<!-- Generator: Adobe Illustrator 27.2.0, SVG Export Plug-In . SVG Version: 6.00 Build 0)  -->
<svg version="1.1" id="sort-ascending" xmlns="http://www.w3.org/2000/svg" xmlns:xlink="http://www.w3.org/1999/xlink" x="0px"
	 y="0px" viewBox="0 0 800 800" style="enable-background:new 0 0 800 800;" xml:space="preserve">
<path fill="var(--svgcolor)" d="M200,100c8.9-0.1,17.4,3.4,23.7,9.7L357,243c13.1,13.1,13.1,34.3,0,47.3s-34.3,13.1-47.3,0L200,180.3
	l-109.7,110c-13.1,13.1-34.3,13.1-47.3,0s-13.1-34.3,0-47.3l133.3-133.3C182.6,103.4,191.1,99.9,200,100z"/>
<path fill="var(--svgcolor)" d="M200,666.7c-18.4,0-33.3-14.9-33.3-33.3v-500c0-18.4,14.9-33.3,33.3-33.3s33.3,14.9,33.3,33.3v500
	C233.3,651.7,218.4,666.7,200,666.7z"/>
<circle style="fill:none;stroke:#1C274C;stroke-width:50;stroke-miterlimit:133.3333;" cx="557.3" cy="476.4" r="166.7"/>
<path style="fill:none;stroke:#1C274C;stroke-width:50;stroke-linecap:round;stroke-linejoin:round;stroke-miterlimit:133.3333;" d="
	M557.3,409.7v61.5L531,509.7"/>
</svg>
