<?xml version="1.0" encoding="utf-8"?>
<!-- Generator: Adobe Illustrator 27.2.0, SVG Export Plug-In . SVG Version: 6.00 Build 0)  -->
<svg version="1.1" id="sort-ascending" xmlns="http://www.w3.org/2000/svg" xmlns:xlink="http://www.w3.org/1999/xlink" x="0px"
	 y="0px" viewBox="0 0 800 800" style="enable-background:new 0 0 800 800;" xml:space="preserve">
<path fill="var(--svgcolor)" d="M200,666.7c-8.9,0.1-17.4-3.4-23.7-9.7L43,523.7c-13.1-13.1-13.1-34.3,0-47.3s34.3-13.1,47.3,0
	l109.7,110l109.7-110c13.1-13.1,34.3-13.1,47.3,0s13.1,34.3,0,47.3L223.7,657C217.4,663.2,208.9,666.7,200,666.7z"/>
<path fill="var(--svgcolor)" d="M200,666.7c-18.4,0-33.3-14.9-33.3-33.3v-500c0-18.4,14.9-33.3,33.3-33.3s33.3,14.9,33.3,33.3v500
	C233.3,651.7,218.4,666.7,200,666.7z"/>
<text transform="matrix(1 0 0 1 464.2529 325.6757)" style="font-family:'ArialRoundedMTBold'; font-size:300px;">A</text>
<text transform="matrix(1 0 0 1 472.3506 666.6674)" style="font-family:'ArialRoundedMTBold'; font-size:300px;">Z</text>
</svg>
